<svg xmlns="http://www.w3.org/2000/svg" xmlns:svg="http://www.w3.org/2000/svg" id="svg2" width="670.28" height="593.636" version="1.1"><defs id="defs4"><marker id="marker5276" orient="auto" overflow="visible" refX="0" refY="0"><path id="path5278" fill="#000" fill-opacity="1" fill-rule="evenodd" stroke="#000" stroke-opacity="1" stroke-width="1.333" d="M 0,0 5,-5 -12.5,0 5,5 0,0 Z" transform="matrix(-0.8,0,0,-0.8,-10,0)"/></marker><marker id="marker5106" orient="auto" overflow="visible" refX="0" refY="0"><path id="path5108" fill="#000" fill-opacity="1" fill-rule="evenodd" stroke="#000" stroke-opacity="1" stroke-width="1.333" d="M 0,0 5,-5 -12.5,0 5,5 0,0 Z" transform="matrix(-0.8,0,0,-0.8,-10,0)"/></marker><marker id="marker5102" orient="auto" overflow="visible" refX="0" refY="0"><path id="path5104" fill="#000" fill-opacity="1" fill-rule="evenodd" stroke="#000" stroke-opacity="1" stroke-width="1.333" d="M 0,0 5,-5 -12.5,0 5,5 0,0 Z" transform="matrix(-0.8,0,0,-0.8,-10,0)"/></marker><marker id="marker5098" orient="auto" overflow="visible" refX="0" refY="0"><path id="path5100" fill="#000" fill-opacity="1" fill-rule="evenodd" stroke="#000" stroke-opacity="1" stroke-width="1.333" d="M 0,0 5,-5 -12.5,0 5,5 0,0 Z" transform="matrix(-0.8,0,0,-0.8,-10,0)"/></marker><marker id="marker5094" orient="auto" overflow="visible" refX="0" refY="0"><path id="path5096" fill="#000" fill-opacity="1" fill-rule="evenodd" stroke="#000" stroke-opacity="1" stroke-width="1.333" d="M 0,0 5,-5 -12.5,0 5,5 0,0 Z" transform="matrix(-0.8,0,0,-0.8,-10,0)"/></marker><marker id="marker5089" orient="auto" overflow="visible" refX="0" refY="0"><path id="path5091" fill="#000" fill-opacity="1" fill-rule="evenodd" stroke="#000" stroke-opacity="1" stroke-width="1.333" d="M 0,0 5,-5 -12.5,0 5,5 0,0 Z" transform="matrix(-0.8,0,0,-0.8,-10,0)"/></marker><marker id="marker5085" orient="auto" overflow="visible" refX="0" refY="0"><path id="path5087" fill="#000" fill-opacity="1" fill-rule="evenodd" stroke="#000" stroke-opacity="1" stroke-width="1.333" d="M 0,0 5,-5 -12.5,0 5,5 0,0 Z" transform="matrix(-0.8,0,0,-0.8,-10,0)"/></marker><marker id="marker5081" orient="auto" overflow="visible" refX="0" refY="0"><path id="path5083" fill="#000" fill-opacity="1" fill-rule="evenodd" stroke="#000" stroke-opacity="1" stroke-width="1.333" d="M 0,0 5,-5 -12.5,0 5,5 0,0 Z" transform="matrix(-0.8,0,0,-0.8,-10,0)"/></marker><marker id="marker5077" orient="auto" overflow="visible" refX="0" refY="0"><path id="path5079" fill="#000" fill-opacity="1" fill-rule="evenodd" stroke="#000" stroke-opacity="1" stroke-width="1.333" d="M 0,0 5,-5 -12.5,0 5,5 0,0 Z" transform="matrix(-0.8,0,0,-0.8,-10,0)"/></marker><marker id="marker5627" orient="auto" overflow="visible" refX="0" refY="0"><path id="path5629" fill="#000" fill-opacity="1" fill-rule="evenodd" stroke="#000" stroke-opacity="1" stroke-width="1.333" d="M 0,0 5,-5 -12.5,0 5,5 0,0 Z" transform="matrix(-0.8,0,0,-0.8,-10,0)"/></marker><marker id="marker5249" orient="auto" overflow="visible" refX="0" refY="0"><path id="path5251" fill="#000" fill-opacity="1" fill-rule="evenodd" stroke="#000" stroke-opacity="1" stroke-width="1.333" d="M 0,0 5,-5 -12.5,0 5,5 0,0 Z" transform="matrix(-0.8,0,0,-0.8,-10,0)"/></marker><marker id="marker5105" orient="auto" overflow="visible" refX="0" refY="0"><path id="path5107" fill="#000" fill-opacity="1" fill-rule="evenodd" stroke="#000" stroke-opacity="1" stroke-width="1.333" d="M 0,0 5,-5 -12.5,0 5,5 0,0 Z" transform="matrix(-0.8,0,0,-0.8,-10,0)"/></marker><marker id="marker5099" orient="auto" overflow="visible" refX="0" refY="0"><path id="path5101" fill="#000" fill-opacity="1" fill-rule="evenodd" stroke="#000" stroke-opacity="1" stroke-width="1.333" d="M 0,0 5,-5 -12.5,0 5,5 0,0 Z" transform="matrix(-0.8,0,0,-0.8,-10,0)"/></marker><marker id="marker5093" orient="auto" overflow="visible" refX="0" refY="0"><path id="path5095" fill="#000" fill-opacity="1" fill-rule="evenodd" stroke="#000" stroke-opacity="1" stroke-width="1.333" d="M 0,0 5,-5 -12.5,0 5,5 0,0 Z" transform="matrix(-0.8,0,0,-0.8,-10,0)"/></marker><marker id="marker5087" orient="auto" overflow="visible" refX="0" refY="0"><path id="path5089" fill="#000" fill-opacity="1" fill-rule="evenodd" stroke="#000" stroke-opacity="1" stroke-width="1.333" d="M 0,0 5,-5 -12.5,0 5,5 0,0 Z" transform="matrix(-0.8,0,0,-0.8,-10,0)"/></marker><marker id="marker5067" orient="auto" overflow="visible" refX="0" refY="0"><path id="path5069" fill="#000" fill-opacity="1" fill-rule="evenodd" stroke="#000" stroke-opacity="1" stroke-width="1.333" d="M 0,0 5,-5 -12.5,0 5,5 0,0 Z" transform="matrix(-0.8,0,0,-0.8,-10,0)"/></marker><marker id="marker5061" orient="auto" overflow="visible" refX="0" refY="0"><path id="path5063" fill="#000" fill-opacity="1" fill-rule="evenodd" stroke="#000" stroke-opacity="1" stroke-width="1.333" d="M 0,0 5,-5 -12.5,0 5,5 0,0 Z" transform="matrix(-0.8,0,0,-0.8,-10,0)"/></marker><marker id="marker5055" orient="auto" overflow="visible" refX="0" refY="0"><path id="path5057" fill="#000" fill-opacity="1" fill-rule="evenodd" stroke="#000" stroke-opacity="1" stroke-width="1.333" d="M 0,0 5,-5 -12.5,0 5,5 0,0 Z" transform="matrix(-0.8,0,0,-0.8,-10,0)"/></marker><marker id="marker5049" orient="auto" overflow="visible" refX="0" refY="0"><path id="path5051" fill="#000" fill-opacity="1" fill-rule="evenodd" stroke="#000" stroke-opacity="1" stroke-width="1.333" d="M 0,0 5,-5 -12.5,0 5,5 0,0 Z" transform="matrix(-0.8,0,0,-0.8,-10,0)"/></marker><marker id="marker5043" orient="auto" overflow="visible" refX="0" refY="0"><path id="path5045" fill="#000" fill-opacity="1" fill-rule="evenodd" stroke="#000" stroke-opacity="1" stroke-width="1.333" d="M 0,0 5,-5 -12.5,0 5,5 0,0 Z" transform="matrix(-0.8,0,0,-0.8,-10,0)"/></marker><marker id="marker5039" orient="auto" overflow="visible" refX="0" refY="0"><path id="path5041" fill="#000" fill-opacity="1" fill-rule="evenodd" stroke="#000" stroke-opacity="1" stroke-width="1.333" d="M 0,0 5,-5 -12.5,0 5,5 0,0 Z" transform="matrix(-0.8,0,0,-0.8,-10,0)"/></marker><marker id="marker5035" orient="auto" overflow="visible" refX="0" refY="0"><path id="path5037" fill="#000" fill-opacity="1" fill-rule="evenodd" stroke="#000" stroke-opacity="1" stroke-width="1.333" d="M 0,0 5,-5 -12.5,0 5,5 0,0 Z" transform="matrix(-0.8,0,0,-0.8,-10,0)"/></marker><marker id="marker5029" orient="auto" overflow="visible" refX="0" refY="0"><path id="path5031" fill="#000" fill-opacity="1" fill-rule="evenodd" stroke="#000" stroke-opacity="1" stroke-width="1.333" d="M 0,0 5,-5 -12.5,0 5,5 0,0 Z" transform="matrix(-0.8,0,0,-0.8,-10,0)"/></marker><marker id="marker5023" orient="auto" overflow="visible" refX="0" refY="0"><path id="path5025" fill="#000" fill-opacity="1" fill-rule="evenodd" stroke="#000" stroke-opacity="1" stroke-width="1.333" d="M 0,0 5,-5 -12.5,0 5,5 0,0 Z" transform="matrix(-0.8,0,0,-0.8,-10,0)"/></marker><marker id="marker5018" orient="auto" overflow="visible" refX="0" refY="0"><path id="path4762" fill="#000" fill-opacity="1" fill-rule="evenodd" stroke="#000" stroke-opacity="1" stroke-width="1.333" d="M 0,0 5,-5 -12.5,0 5,5 0,0 Z" transform="matrix(-0.8,0,0,-0.8,-10,0)"/></marker><marker id="marker5650" orient="auto" overflow="visible" refX="0" refY="0"><path id="path5652" fill="#000" fill-opacity="1" fill-rule="evenodd" stroke="#000" stroke-opacity="1" stroke-width="1.333" d="M 0,0 5,-5 -12.5,0 5,5 0,0 Z" transform="matrix(-0.8,0,0,-0.8,-10,0)"/></marker><marker id="marker5646" orient="auto" overflow="visible" refX="0" refY="0"><path id="path5648" fill="#000" fill-opacity="1" fill-rule="evenodd" stroke="#000" stroke-opacity="1" stroke-width="1.333" d="M 0,0 5,-5 -12.5,0 5,5 0,0 Z" transform="matrix(-0.8,0,0,-0.8,-10,0)"/></marker><marker id="marker5642" orient="auto" overflow="visible" refX="0" refY="0"><path id="path5644" fill="#000" fill-opacity="1" fill-rule="evenodd" stroke="#000" stroke-opacity="1" stroke-width="1.333" d="M 0,0 5,-5 -12.5,0 5,5 0,0 Z" transform="matrix(-0.8,0,0,-0.8,-10,0)"/></marker><marker id="marker5597" orient="auto" overflow="visible" refX="0" refY="0"><path id="path5599" fill="#000" fill-opacity="1" fill-rule="evenodd" stroke="#000" stroke-opacity="1" stroke-width="1.333" d="M 0,0 5,-5 -12.5,0 5,5 0,0 Z" transform="matrix(-0.8,0,0,-0.8,-10,0)"/></marker><marker id="marker5591" orient="auto" overflow="visible" refX="0" refY="0"><path id="path5593" fill="#000" fill-opacity="1" fill-rule="evenodd" stroke="#000" stroke-opacity="1" stroke-width="1.333" d="M 0,0 5,-5 -12.5,0 5,5 0,0 Z" transform="matrix(-0.8,0,0,-0.8,-10,0)"/></marker><marker id="marker4996" orient="auto" overflow="visible" refX="0" refY="0"><path id="path4998" fill="#000" fill-opacity="1" fill-rule="evenodd" stroke="#000" stroke-opacity="1" stroke-width="1.333" d="M 0,0 5,-5 -12.5,0 5,5 0,0 Z" transform="matrix(-0.8,0,0,-0.8,-10,0)"/></marker><marker id="marker4992" orient="auto" overflow="visible" refX="0" refY="0"><path id="path4994" fill="#000" fill-opacity="1" fill-rule="evenodd" stroke="#000" stroke-opacity="1" stroke-width="1.333" d="M 0,0 5,-5 -12.5,0 5,5 0,0 Z" transform="matrix(-0.8,0,0,-0.8,-10,0)"/></marker><marker id="marker4984" orient="auto" overflow="visible" refX="0" refY="0"><path id="path4986" fill="#000" fill-opacity="1" fill-rule="evenodd" stroke="#000" stroke-opacity="1" stroke-width="1.333" d="M 0,0 5,-5 -12.5,0 5,5 0,0 Z" transform="matrix(-0.8,0,0,-0.8,-10,0)"/></marker><marker id="marker4980" orient="auto" overflow="visible" refX="0" refY="0"><path id="path4982" fill="#000" fill-opacity="1" fill-rule="evenodd" stroke="#000" stroke-opacity="1" stroke-width="1.333" d="M 0,0 5,-5 -12.5,0 5,5 0,0 Z" transform="matrix(-0.8,0,0,-0.8,-10,0)"/></marker><marker id="marker4903" orient="auto" overflow="visible" refX="0" refY="0"><path id="path4647" fill="#000" fill-opacity="1" fill-rule="evenodd" stroke="#000" stroke-opacity="1" stroke-width="1.333" d="M 0,0 5,-5 -12.5,0 5,5 0,0 Z" transform="matrix(-0.8,0,0,-0.8,-10,0)"/></marker><marker id="Arrow2Lend" orient="auto" overflow="visible" refX="0" refY="0"><path id="path3853" fill-rule="evenodd" stroke-linejoin="round" stroke-width=".625" d="M 8.7185878,4.0337352 -2.2072895,0.01601326 8.7185884,-4.0017078 c -1.7454984,2.3720609 -1.7354408,5.6174519 -6e-7,8.035443 z" transform="matrix(-1.1,0,0,-1.1,-1.1,0)"/></marker><marker id="Arrow1Lstart" orient="auto" overflow="visible" refX="0" refY="0"><path id="path3832" fill-rule="evenodd" stroke="#000" stroke-width="1.333" d="M 0,0 5,-5 -12.5,0 5,5 0,0 Z" transform="matrix(0.8,0,0,0.8,10,0)"/></marker><marker id="Arrow1Mend" orient="auto" overflow="visible" refX="0" refY="0"><path id="path3841" fill-rule="evenodd" stroke="#000" stroke-width="1.333" d="M 0,0 5,-5 -12.5,0 5,5 0,0 Z" transform="matrix(-0.4,0,0,-0.4,-4,0)"/></marker><marker id="Arrow1Lend" orient="auto" overflow="visible" refX="0" refY="0"><path id="path3835" fill-rule="evenodd" stroke="#000" stroke-width="1.333" d="M 0,0 5,-5 -12.5,0 5,5 0,0 Z" transform="matrix(-0.8,0,0,-0.8,-10,0)"/></marker><marker id="Arrow1Lstart-0" orient="auto" overflow="visible" refX="0" refY="0"><path id="path3832-0" fill-rule="evenodd" stroke="#000" stroke-width="1.333" d="M 0,0 5,-5 -12.5,0 5,5 0,0 Z" transform="matrix(0.8,0,0,0.8,10,0)"/></marker><marker id="Arrow1Lstart-4" orient="auto" overflow="visible" refX="0" refY="0"><path id="path3832-2" fill-rule="evenodd" stroke="#000" stroke-width="1.333" d="M 0,0 5,-5 -12.5,0 5,5 0,0 Z" transform="matrix(0.8,0,0,0.8,10,0)"/></marker><marker id="Arrow1Lstart-3" orient="auto" overflow="visible" refX="0" refY="0"><path id="path3832-04" fill-rule="evenodd" stroke="#000" stroke-width="1.333" d="M 0,0 5,-5 -12.5,0 5,5 0,0 Z" transform="matrix(0.8,0,0,0.8,10,0)"/></marker><marker id="marker7886" orient="auto" overflow="visible" refX="0" refY="0"><path id="path7888" fill-rule="evenodd" stroke="#000" stroke-width="1.333" d="M 0,0 5,-5 -12.5,0 5,5 0,0 Z" transform="matrix(0.8,0,0,0.8,10,0)"/></marker><marker id="Arrow1Lstart-35" orient="auto" overflow="visible" refX="0" refY="0"><path id="path3832-3" fill-rule="evenodd" stroke="#000" stroke-width="1.333" d="M 0,0 5,-5 -12.5,0 5,5 0,0 Z" transform="matrix(0.8,0,0,0.8,10,0)"/></marker><marker id="marker7886-9" orient="auto" overflow="visible" refX="0" refY="0"><path id="path7888-6" fill-rule="evenodd" stroke="#000" stroke-width="1.333" d="M 0,0 5,-5 -12.5,0 5,5 0,0 Z" transform="matrix(0.8,0,0,0.8,10,0)"/></marker><marker id="marker7886-9-2" orient="auto" overflow="visible" refX="0" refY="0"><path id="path7888-6-9" fill-rule="evenodd" stroke="#000" stroke-width="1.333" d="M 0,0 5,-5 -12.5,0 5,5 0,0 Z" transform="matrix(0.8,0,0,0.8,10,0)"/></marker><marker id="marker7886-9-3" orient="auto" overflow="visible" refX="0" refY="0"><path id="path7888-6-2" fill-rule="evenodd" stroke="#000" stroke-width="1.333" d="M 0,0 5,-5 -12.5,0 5,5 0,0 Z" transform="matrix(0.8,0,0,0.8,10,0)"/></marker><marker id="marker7886-9-6" orient="auto" overflow="visible" refX="0" refY="0"><path id="path7888-6-4" fill-rule="evenodd" stroke="#000" stroke-width="1.333" d="M 0,0 5,-5 -12.5,0 5,5 0,0 Z" transform="matrix(0.8,0,0,0.8,10,0)"/></marker><marker id="marker7886-9-60" orient="auto" overflow="visible" refX="0" refY="0"><path id="path7888-6-41" fill-rule="evenodd" stroke="#000" stroke-width="1.333" d="M 0,0 5,-5 -12.5,0 5,5 0,0 Z" transform="matrix(0.8,0,0,0.8,10,0)"/></marker><marker id="marker7886-9-35" orient="auto" overflow="visible" refX="0" refY="0"><path id="path7888-6-49" fill-rule="evenodd" stroke="#000" stroke-width="1.333" d="M 0,0 5,-5 -12.5,0 5,5 0,0 Z" transform="matrix(0.8,0,0,0.8,10,0)"/></marker><marker id="marker4903-9" orient="auto" overflow="visible" refX="0" refY="0"><path id="path4647-7" fill="#000" fill-opacity="1" fill-rule="evenodd" stroke="#000" stroke-opacity="1" stroke-width="1.333" d="M 0,0 5,-5 -12.5,0 5,5 0,0 Z" transform="matrix(-0.8,0,0,-0.8,-10,0)"/></marker><marker id="marker4903-3" orient="auto" overflow="visible" refX="0" refY="0"><path id="path4647-2" fill="#000" fill-opacity="1" fill-rule="evenodd" stroke="#000" stroke-opacity="1" stroke-width="1.333" d="M 0,0 5,-5 -12.5,0 5,5 0,0 Z" transform="matrix(-0.8,0,0,-0.8,-10,0)"/></marker><marker id="marker4992-1" orient="auto" overflow="visible" refX="0" refY="0"><path id="path4994-8" fill="#000" fill-opacity="1" fill-rule="evenodd" stroke="#000" stroke-opacity="1" stroke-width="1.333" d="M 0,0 5,-5 -12.5,0 5,5 0,0 Z" transform="matrix(-0.8,0,0,-0.8,-10,0)"/></marker><marker id="marker4996-0" orient="auto" overflow="visible" refX="0" refY="0"><path id="path4998-8" fill="#000" fill-opacity="1" fill-rule="evenodd" stroke="#000" stroke-opacity="1" stroke-width="1.333" d="M 0,0 5,-5 -12.5,0 5,5 0,0 Z" transform="matrix(-0.8,0,0,-0.8,-10,0)"/></marker><marker id="marker4992-0" orient="auto" overflow="visible" refX="0" refY="0"><path id="path4994-1" fill="#000" fill-opacity="1" fill-rule="evenodd" stroke="#000" stroke-opacity="1" stroke-width="1.333" d="M 0,0 5,-5 -12.5,0 5,5 0,0 Z" transform="matrix(-0.8,0,0,-0.8,-10,0)"/></marker><marker id="marker4996-1" orient="auto" overflow="visible" refX="0" refY="0"><path id="path4998-4" fill="#000" fill-opacity="1" fill-rule="evenodd" stroke="#000" stroke-opacity="1" stroke-width="1.333" d="M 0,0 5,-5 -12.5,0 5,5 0,0 Z" transform="matrix(-0.8,0,0,-0.8,-10,0)"/></marker><marker id="Arrow1Lstart-08" orient="auto" overflow="visible" refX="0" refY="0"><path id="path3832-00" fill-rule="evenodd" stroke="#000" stroke-width="1.333" d="M 0,0 5,-5 -12.5,0 5,5 0,0 Z" transform="matrix(0.8,0,0,0.8,10,0)"/></marker><marker id="marker7886-9-9" orient="auto" overflow="visible" refX="0" refY="0"><path id="path7888-6-7" fill-rule="evenodd" stroke="#000" stroke-width="1.333" d="M 0,0 5,-5 -12.5,0 5,5 0,0 Z" transform="matrix(0.8,0,0,0.8,10,0)"/></marker><marker id="marker7886-9-34" orient="auto" overflow="visible" refX="0" refY="0"><path id="path7888-6-8" fill-rule="evenodd" stroke="#000" stroke-width="1.333" d="M 0,0 5,-5 -12.5,0 5,5 0,0 Z" transform="matrix(0.8,0,0,0.8,10,0)"/></marker><marker id="Arrow1Lstart-08-0" orient="auto" overflow="visible" refX="0" refY="0"><path id="path3832-00-2" fill-rule="evenodd" stroke="#000" stroke-width="1.333" d="M 0,0 5,-5 -12.5,0 5,5 0,0 Z" transform="matrix(0.8,0,0,0.8,10,0)"/></marker><marker id="marker7886-9-34-2" orient="auto" overflow="visible" refX="0" refY="0"><path id="path7888-6-8-7" fill-rule="evenodd" stroke="#000" stroke-width="1.333" d="M 0,0 5,-5 -12.5,0 5,5 0,0 Z" transform="matrix(0.8,0,0,0.8,10,0)"/></marker><marker id="Arrow1Lstart-08-0-8" orient="auto" overflow="visible" refX="0" refY="0"><path id="path3832-00-2-3" fill-rule="evenodd" stroke="#000" stroke-width="1.333" d="M 0,0 5,-5 -12.5,0 5,5 0,0 Z" transform="matrix(0.8,0,0,0.8,10,0)"/></marker><marker id="marker7886-9-34-9" orient="auto" overflow="visible" refX="0" refY="0"><path id="path7888-6-8-2" fill-rule="evenodd" stroke="#000" stroke-width="1.333" d="M 0,0 5,-5 -12.5,0 5,5 0,0 Z" transform="matrix(0.8,0,0,0.8,10,0)"/></marker><marker id="Arrow1Lstart-08-0-88" orient="auto" overflow="visible" refX="0" refY="0"><path id="path3832-00-2-2" fill-rule="evenodd" stroke="#000" stroke-width="1.333" d="M 0,0 5,-5 -12.5,0 5,5 0,0 Z" transform="matrix(0.8,0,0,0.8,10,0)"/></marker><marker id="marker5597-9" orient="auto" overflow="visible" refX="0" refY="0"><path id="path5599-3" fill="#000" fill-opacity="1" fill-rule="evenodd" stroke="#000" stroke-opacity="1" stroke-width="1.333" d="M 0,0 5,-5 -12.5,0 5,5 0,0 Z" transform="matrix(-0.8,0,0,-0.8,-10,0)"/></marker><marker id="marker5597-7" orient="auto" overflow="visible" refX="0" refY="0"><path id="path5599-9" fill="#000" fill-opacity="1" fill-rule="evenodd" stroke="#000" stroke-opacity="1" stroke-width="1.333" d="M 0,0 5,-5 -12.5,0 5,5 0,0 Z" transform="matrix(-0.8,0,0,-0.8,-10,0)"/></marker><marker id="marker5597-2" orient="auto" overflow="visible" refX="0" refY="0"><path id="path5599-94" fill="#000" fill-opacity="1" fill-rule="evenodd" stroke="#000" stroke-opacity="1" stroke-width="1.333" d="M 0,0 5,-5 -12.5,0 5,5 0,0 Z" transform="matrix(-0.8,0,0,-0.8,-10,0)"/></marker><marker id="marker7886-9-34-9-4" orient="auto" overflow="visible" refX="0" refY="0"><path id="path7888-6-8-2-4" fill-rule="evenodd" stroke="#000" stroke-width="1.333" d="M 0,0 5,-5 -12.5,0 5,5 0,0 Z" transform="matrix(0.8,0,0,0.8,10,0)"/></marker><marker id="Arrow1Lstart-08-0-88-8" orient="auto" overflow="visible" refX="0" refY="0"><path id="path3832-00-2-2-0" fill-rule="evenodd" stroke="#000" stroke-width="1.333" d="M 0,0 5,-5 -12.5,0 5,5 0,0 Z" transform="matrix(0.8,0,0,0.8,10,0)"/></marker><marker id="marker5597-2-7" orient="auto" overflow="visible" refX="0" refY="0"><path id="path5599-94-5" fill="#000" fill-opacity="1" fill-rule="evenodd" stroke="#000" stroke-opacity="1" stroke-width="1.333" d="M 0,0 5,-5 -12.5,0 5,5 0,0 Z" transform="matrix(-0.8,0,0,-0.8,-10,0)"/></marker><marker id="marker5642-7" orient="auto" overflow="visible" refX="0" refY="0"><path id="path5644-9" fill="#000" fill-opacity="1" fill-rule="evenodd" stroke="#000" stroke-opacity="1" stroke-width="1.333" d="M 0,0 5,-5 -12.5,0 5,5 0,0 Z" transform="matrix(-0.8,0,0,-0.8,-10,0)"/></marker><marker id="Arrow1Lend-0" orient="auto" overflow="visible" refX="0" refY="0"><path id="path3835-8" fill-rule="evenodd" stroke="#000" stroke-width="1.333" d="M 0,0 5,-5 -12.5,0 5,5 0,0 Z" transform="matrix(-0.8,0,0,-0.8,-10,0)"/></marker><marker id="marker8883" orient="auto" overflow="visible" refX="0" refY="0"><path id="path8885" fill-rule="evenodd" stroke="#000" stroke-width="1.333" d="M 0,0 5,-5 -12.5,0 5,5 0,0 Z" transform="matrix(-0.8,0,0,-0.8,-10,0)"/></marker><marker id="marker8887" orient="auto" overflow="visible" refX="0" refY="0"><path id="path8889" fill-rule="evenodd" stroke="#000" stroke-width="1.333" d="M 0,0 5,-5 -12.5,0 5,5 0,0 Z" transform="matrix(-0.8,0,0,-0.8,-10,0)"/></marker><marker id="marker8891" orient="auto" overflow="visible" refX="0" refY="0"><path id="path8893" fill-rule="evenodd" stroke="#000" stroke-width="1.333" d="M 0,0 5,-5 -12.5,0 5,5 0,0 Z" transform="matrix(-0.8,0,0,-0.8,-10,0)"/></marker><marker id="Arrow1Lend-9" orient="auto" overflow="visible" refX="0" refY="0"><path id="path3835-7" fill-rule="evenodd" stroke="#000" stroke-width="1.333" d="M 0,0 5,-5 -12.5,0 5,5 0,0 Z" transform="matrix(-0.8,0,0,-0.8,-10,0)"/></marker><marker id="marker8883-2" orient="auto" overflow="visible" refX="0" refY="0"><path id="path8885-9" fill-rule="evenodd" stroke="#000" stroke-width="1.333" d="M 0,0 5,-5 -12.5,0 5,5 0,0 Z" transform="matrix(-0.8,0,0,-0.8,-10,0)"/></marker><marker id="marker8887-3" orient="auto" overflow="visible" refX="0" refY="0"><path id="path8889-1" fill-rule="evenodd" stroke="#000" stroke-width="1.333" d="M 0,0 5,-5 -12.5,0 5,5 0,0 Z" transform="matrix(-0.8,0,0,-0.8,-10,0)"/></marker><marker id="marker8891-8" orient="auto" overflow="visible" refX="0" refY="0"><path id="path8893-6" fill-rule="evenodd" stroke="#000" stroke-width="1.333" d="M 0,0 5,-5 -12.5,0 5,5 0,0 Z" transform="matrix(-0.8,0,0,-0.8,-10,0)"/></marker><marker id="Arrow1Lend-3" orient="auto" overflow="visible" refX="0" refY="0"><path id="path3835-0" fill-rule="evenodd" stroke="#000" stroke-width="1.333" d="M 0,0 5,-5 -12.5,0 5,5 0,0 Z" transform="matrix(-0.8,0,0,-0.8,-10,0)"/></marker><marker id="marker8883-3" orient="auto" overflow="visible" refX="0" refY="0"><path id="path8885-8" fill-rule="evenodd" stroke="#000" stroke-width="1.333" d="M 0,0 5,-5 -12.5,0 5,5 0,0 Z" transform="matrix(-0.8,0,0,-0.8,-10,0)"/></marker><marker id="marker8887-38" orient="auto" overflow="visible" refX="0" refY="0"><path id="path8889-5" fill-rule="evenodd" stroke="#000" stroke-width="1.333" d="M 0,0 5,-5 -12.5,0 5,5 0,0 Z" transform="matrix(-0.8,0,0,-0.8,-10,0)"/></marker><marker id="marker8891-0" orient="auto" overflow="visible" refX="0" refY="0"><path id="path8893-2" fill-rule="evenodd" stroke="#000" stroke-width="1.333" d="M 0,0 5,-5 -12.5,0 5,5 0,0 Z" transform="matrix(-0.8,0,0,-0.8,-10,0)"/></marker><marker id="Arrow1Lend-7" orient="auto" overflow="visible" refX="0" refY="0"><path id="path3835-2" fill-rule="evenodd" stroke="#000" stroke-width="1.333" d="M 0,0 5,-5 -12.5,0 5,5 0,0 Z" transform="matrix(-0.8,0,0,-0.8,-10,0)"/></marker><marker id="marker8883-4" orient="auto" overflow="visible" refX="0" refY="0"><path id="path8885-6" fill-rule="evenodd" stroke="#000" stroke-width="1.333" d="M 0,0 5,-5 -12.5,0 5,5 0,0 Z" transform="matrix(-0.8,0,0,-0.8,-10,0)"/></marker><marker id="marker8887-9" orient="auto" overflow="visible" refX="0" refY="0"><path id="path8889-4" fill-rule="evenodd" stroke="#000" stroke-width="1.333" d="M 0,0 5,-5 -12.5,0 5,5 0,0 Z" transform="matrix(-0.8,0,0,-0.8,-10,0)"/></marker><marker id="marker8891-1" orient="auto" overflow="visible" refX="0" refY="0"><path id="path8893-24" fill-rule="evenodd" stroke="#000" stroke-width="1.333" d="M 0,0 5,-5 -12.5,0 5,5 0,0 Z" transform="matrix(-0.8,0,0,-0.8,-10,0)"/></marker></defs><metadata id="metadata7"/><g id="layer1" transform="translate(-805.16981,-12.210737)"><rect id="rect4803" width="116.415" height="110.666" x="806.472" y="68.527" fill="#afafe9" fill-opacity="1" stroke="#000" stroke-dasharray="none" stroke-dashoffset="0" stroke-miterlimit="4" stroke-opacity="1" stroke-width="1.002" opacity=".61"/><rect id="rect4803-1" width="116.415" height="110.666" x="944.265" y="68.527" fill="#cdde87" fill-opacity="1" stroke="#000" stroke-dasharray="none" stroke-dashoffset="0" stroke-miterlimit="4" stroke-opacity="1" stroke-width="1.002" opacity=".61"/><rect id="rect4803-5" width="116.415" height="110.666" x="1082.059" y="68.527" fill="#0000d4" fill-opacity="1" stroke="#000" stroke-dasharray="none" stroke-dashoffset="0" stroke-miterlimit="4" stroke-opacity="1" stroke-width="1.002" opacity=".61"/><text id="text4826" x="836.844" y="31.618" fill="#000" fill-opacity="1" stroke="none" stroke-linecap="butt" stroke-linejoin="miter" stroke-opacity="1" stroke-width="1" font-family="sans-serif" font-size="26.667" font-style="normal" font-weight="normal" letter-spacing="0" word-spacing="0" xml:space="preserve" style="line-height:125%"><tspan id="tspan4828" x="836.844" y="31.618">area</tspan></text><text id="text4830" x="939.7" y="31.338" fill="#000" fill-opacity="1" stroke="none" stroke-linecap="butt" stroke-linejoin="miter" stroke-opacity="1" stroke-width="1" font-family="sans-serif" font-size="26.667" font-style="normal" font-weight="normal" letter-spacing="0" word-spacing="0" xml:space="preserve" style="line-height:125%"><tspan id="tspan4832" x="939.7" y="31.338">pricerange</tspan></text><text id="text4834" x="1116.84" y="34.17" fill="#000" fill-opacity="1" stroke="none" stroke-linecap="butt" stroke-linejoin="miter" stroke-opacity="1" stroke-width="1" font-family="sans-serif" font-size="26.667" font-style="normal" font-weight="normal" letter-spacing="0" word-spacing="0" xml:space="preserve" style="line-height:125%"><tspan id="tspan4836" x="1116.84" y="34.17">food</tspan></text><text id="text4838" x="1233.68" y="34.053" fill="#000" fill-opacity="1" stroke="none" stroke-linecap="butt" stroke-linejoin="miter" stroke-opacity="1" stroke-width="1" font-family="sans-serif" font-size="26.667" font-style="normal" font-weight="normal" letter-spacing="0" word-spacing="0" xml:space="preserve" style="line-height:125%"><tspan id="tspan4840" x="1233.68" y="34.053">address</tspan></text><text id="text4842" x="1382.988" y="31.54" fill="#000" fill-opacity="1" stroke="none" stroke-linecap="butt" stroke-linejoin="miter" stroke-opacity="1" stroke-width="1" font-family="sans-serif" font-size="26.667" font-style="normal" font-weight="normal" letter-spacing="0" word-spacing="0" xml:space="preserve" style="line-height:125%"><tspan id="tspan4844" x="1382.988" y="31.54">phone</tspan></text><rect id="rect4803-5-3" width="116.415" height="110.666" x="1219.853" y="68.527" fill="#0f0" fill-opacity="1" stroke="#000" stroke-dasharray="none" stroke-dashoffset="0" stroke-miterlimit="4" stroke-opacity="1" stroke-width="1.002" opacity=".61"/><rect id="rect4803-5-5" width="116.415" height="110.666" x="1357.646" y="68.527" fill="#1a1a1a" fill-opacity="1" stroke="#000" stroke-dasharray="none" stroke-dashoffset="0" stroke-miterlimit="4" stroke-opacity="1" stroke-width="1.002" opacity=".61"/><rect id="rect4803-3" width="116.415" height="110.666" x="806.173" y="200.873" fill="#afafe9" fill-opacity="1" stroke="#000" stroke-dasharray="none" stroke-dashoffset="0" stroke-miterlimit="4" stroke-opacity="1" stroke-width="1.002" opacity=".61"/><rect id="rect4803-1-1" width="116.415" height="110.666" x="943.966" y="200.873" fill="#ac93a7" fill-opacity="1" stroke="#000" stroke-dasharray="none" stroke-dashoffset="0" stroke-miterlimit="4" stroke-opacity="1" stroke-width="1.002" opacity=".61"/><rect id="rect4803-5-4" width="116.415" height="110.666" x="1081.76" y="200.873" fill="#aef" fill-opacity="1" stroke="#000" stroke-dasharray="none" stroke-dashoffset="0" stroke-miterlimit="4" stroke-opacity="1" stroke-width="1.002" opacity=".61"/><rect id="rect4803-5-3-7" width="116.415" height="110.666" x="1219.554" y="200.873" fill="#f0f" fill-opacity="1" stroke="#000" stroke-dasharray="none" stroke-dashoffset="0" stroke-miterlimit="4" stroke-opacity="1" stroke-width="1.002" opacity=".61"/><rect id="rect4803-5-5-2" width="116.415" height="110.666" x="1357.347" y="200.873" fill="none" fill-opacity="1" stroke="#000" stroke-dasharray="none" stroke-dashoffset="0" stroke-miterlimit="4" stroke-opacity="1" stroke-width="1.002" opacity=".61"/><rect id="rect4803-6" width="116.415" height="110.666" x="805.671" y="331.097" fill="#fca" fill-opacity="1" stroke="#000" stroke-dasharray="none" stroke-dashoffset="0" stroke-miterlimit="4" stroke-opacity="1" stroke-width="1.002" opacity=".61"/><rect id="rect4803-1-2" width="116.415" height="110.666" x="943.464" y="-441.763" fill="#ac93a7" fill-opacity="1" stroke="#000" stroke-dasharray="none" stroke-dashoffset="0" stroke-miterlimit="4" stroke-opacity="1" stroke-width="1.002" opacity=".61" transform="scale(1,-1)"/><rect id="rect4803-5-51" width="116.415" height="110.666" x="1081.258" y="-441.763" fill="#aef" fill-opacity="1" stroke="#000" stroke-dasharray="none" stroke-dashoffset="0" stroke-miterlimit="4" stroke-opacity="1" stroke-width="1.002" opacity=".61" transform="scale(1,-1)"/><rect id="rect4803-5-3-8" width="116.415" height="110.666" x="1219.052" y="-441.763" fill="maroon" fill-opacity="1" stroke="#000" stroke-dasharray="none" stroke-dashoffset="0" stroke-miterlimit="4" stroke-opacity="1" stroke-width="1.002" opacity=".61" transform="scale(1,-1)"/><rect id="rect4803-5-5-4" width="116.415" height="110.666" x="1356.845" y="-441.763" fill="teal" fill-opacity="1" stroke="#000" stroke-dasharray="none" stroke-dashoffset="0" stroke-miterlimit="4" stroke-opacity="1" stroke-width="1.002" opacity=".61" transform="scale(1,-1)"/><rect id="rect4803-56" width="116.415" height="110.666" x="807.359" y="494.68" fill="#fca" fill-opacity="1" stroke="#000" stroke-dasharray="none" stroke-dashoffset="0" stroke-miterlimit="4" stroke-opacity="1" stroke-width="1.002" opacity=".61"/><rect id="rect4803-1-20" width="116.415" height="110.666" x="945.153" y="494.68" fill="#de87aa" fill-opacity="1" stroke="#000" stroke-dasharray="none" stroke-dashoffset="0" stroke-miterlimit="4" stroke-opacity="1" stroke-width="1.002" opacity=".61"/><rect id="rect4803-5-7" width="116.415" height="110.666" x="1082.946" y="494.68" fill="#aef" fill-opacity="1" stroke="#000" stroke-dasharray="none" stroke-dashoffset="0" stroke-miterlimit="4" stroke-opacity="1" stroke-width="1.002" opacity=".61"/><rect id="rect4803-5-3-5" width="116.415" height="110.666" x="1220.74" y="494.68" fill="#ff0" fill-opacity="1" stroke="#000" stroke-dasharray="none" stroke-dashoffset="0" stroke-miterlimit="4" stroke-opacity="1" stroke-width="1.002" opacity=".61"/><rect id="rect4803-5-5-8" width="116.415" height="110.666" x="1358.534" y="494.68" fill="purple" fill-opacity="1" stroke="#000" stroke-dasharray="none" stroke-dashoffset="0" stroke-miterlimit="4" stroke-opacity="1" stroke-width="1.002" opacity=".61"/><text id="text5025" x="839.216" y="136.674" fill="#000" fill-opacity="1" stroke="none" stroke-linecap="butt" stroke-linejoin="miter" stroke-opacity="1" stroke-width="1" font-family="sans-serif" font-size="26.667" font-style="normal" font-weight="normal" letter-spacing="0" word-spacing="0" xml:space="preserve" style="line-height:125%"><tspan id="tspan5027" x="839.216" y="136.674">west</tspan></text><text id="text5025-7" x="840.667" y="270.797" fill="#000" fill-opacity="1" stroke="none" stroke-linecap="butt" stroke-linejoin="miter" stroke-opacity="1" stroke-width="1" font-family="sans-serif" font-size="26.667" font-style="normal" font-weight="normal" letter-spacing="0" word-spacing="0" xml:space="preserve" style="line-height:125%"><tspan id="tspan5027-0" x="840.667" y="270.797">west</tspan></text><text id="text5025-2" x="838.104" y="391.212" fill="#000" fill-opacity="1" stroke="none" stroke-linecap="butt" stroke-linejoin="miter" stroke-opacity="1" stroke-width="1" font-family="sans-serif" font-size="26.667" font-style="normal" font-weight="normal" letter-spacing="0" word-spacing="0" xml:space="preserve" style="line-height:125%"><tspan id="tspan5027-8" x="838.104" y="391.212">east</tspan></text><text id="text5025-2-1" x="840.867" y="555.056" fill="#000" fill-opacity="1" stroke="none" stroke-linecap="butt" stroke-linejoin="miter" stroke-opacity="1" stroke-width="1" font-family="sans-serif" font-size="26.667" font-style="normal" font-weight="normal" letter-spacing="0" word-spacing="0" xml:space="preserve" style="line-height:125%"><tspan id="tspan5027-8-3" x="840.867" y="555.056">east</tspan></text><text id="text5082" x="964.748" y="270.396" fill="#000" fill-opacity="1" stroke="none" stroke-linecap="butt" stroke-linejoin="miter" stroke-opacity="1" stroke-width="1" font-family="sans-serif" font-size="26.667" font-style="normal" font-weight="normal" letter-spacing="0" word-spacing="0" xml:space="preserve" style="line-height:125%"><tspan id="tspan5084" x="964.748" y="270.396">cheap</tspan></text><text id="text5082-7" x="967.952" y="387.939" fill="#000" fill-opacity="1" stroke="none" stroke-linecap="butt" stroke-linejoin="miter" stroke-opacity="1" stroke-width="1" font-family="sans-serif" font-size="26.667" font-style="normal" font-weight="normal" letter-spacing="0" word-spacing="0" xml:space="preserve" style="line-height:125%"><tspan id="tspan5084-7" x="967.952" y="387.939">cheap</tspan></text><text id="text5104" x="970.185" y="556.464" fill="#000" fill-opacity="1" stroke="none" stroke-linecap="butt" stroke-linejoin="miter" stroke-opacity="1" stroke-width="1" font-family="sans-serif" font-size="26.667" font-style="normal" font-weight="normal" letter-spacing="0" word-spacing="0" xml:space="preserve" style="line-height:125%"><tspan id="tspan5106" x="970.185" y="556.464">middle</tspan></text><text id="text5108" x="967.501" y="134.423" fill="#000" fill-opacity="1" stroke="none" stroke-linecap="butt" stroke-linejoin="miter" stroke-opacity="1" stroke-width="1" font-family="sans-serif" font-size="26.667" font-style="normal" font-weight="normal" letter-spacing="0" word-spacing="0" xml:space="preserve" style="line-height:125%"><tspan id="tspan5110" x="967.501" y="134.423">expen.</tspan></text><text id="text5112" x="1101.223" y="266.708" fill="#000" fill-opacity="1" stroke="none" stroke-linecap="butt" stroke-linejoin="miter" stroke-opacity="1" stroke-width="1" font-family="sans-serif" font-size="26.667" font-style="normal" font-weight="normal" letter-spacing="0" word-spacing="0" xml:space="preserve" style="line-height:125%"><tspan id="tspan5114" x="1101.223" y="266.708">french</tspan></text><text id="text5112-5" x="1100.698" y="397.762" fill="#000" fill-opacity="1" stroke="none" stroke-linecap="butt" stroke-linejoin="miter" stroke-opacity="1" stroke-width="1" font-family="sans-serif" font-size="26.667" font-style="normal" font-weight="normal" letter-spacing="0" word-spacing="0" xml:space="preserve" style="line-height:125%"><tspan id="tspan5114-3" x="1100.698" y="397.762">french</tspan></text><text id="text5112-3" x="1107.884" y="554.419" fill="#000" fill-opacity="1" stroke="none" stroke-linecap="butt" stroke-linejoin="miter" stroke-opacity="1" stroke-width="1" font-family="sans-serif" font-size="26.667" font-style="normal" font-weight="normal" letter-spacing="0" word-spacing="0" xml:space="preserve" style="line-height:125%"><tspan id="tspan5114-8" x="1107.884" y="554.419">french</tspan></text><text id="text5142" x="1115.474" y="122.423" fill="#000" fill-opacity="1" stroke="none" stroke-linecap="butt" stroke-linejoin="miter" stroke-opacity="1" stroke-width="1" font-family="sans-serif" font-size="26.667" font-style="normal" font-weight="normal" letter-spacing="0" word-spacing="0" xml:space="preserve" style="line-height:125%"><tspan id="tspan5144" x="1115.474" y="122.423">xyz</tspan></text><text id="text5146" x="1266.131" y="124.986" fill="#000" fill-opacity="1" stroke="none" stroke-linecap="butt" stroke-linejoin="miter" stroke-opacity="1" stroke-width="1" font-family="sans-serif" font-size="26.667" font-style="normal" font-weight="normal" letter-spacing="0" word-spacing="0" xml:space="preserve" style="line-height:125%"><tspan id="tspan5148" x="1266.131" y="124.986">A</tspan></text><text id="text5150" x="1269.257" y="265.773" fill="#000" fill-opacity="1" stroke="none" stroke-linecap="butt" stroke-linejoin="miter" stroke-opacity="1" stroke-width="1" font-family="sans-serif" font-size="26.667" font-style="normal" font-weight="normal" letter-spacing="0" word-spacing="0" xml:space="preserve" style="line-height:125%"><tspan id="tspan5152" x="1269.257" y="265.773">B</tspan></text><text id="text5154" x="1267.82" y="400.621" fill="#000" fill-opacity="1" stroke="none" stroke-linecap="butt" stroke-linejoin="miter" stroke-opacity="1" stroke-width="1" font-family="sans-serif" font-size="26.667" font-style="normal" font-weight="normal" letter-spacing="0" word-spacing="0" xml:space="preserve" style="line-height:125%"><tspan id="tspan5156" x="1267.82" y="400.621">C</tspan></text><text id="text5158" x="1269.318" y="555.589" fill="#000" fill-opacity="1" stroke="none" stroke-linecap="butt" stroke-linejoin="miter" stroke-opacity="1" stroke-width="1" font-family="sans-serif" font-size="26.667" font-style="normal" font-weight="normal" letter-spacing="0" word-spacing="0" xml:space="preserve" style="line-height:125%"><tspan id="tspan5160" x="1269.318" y="555.589">D</tspan></text><text id="text5162" x="1400.044" y="125.237" fill="#000" fill-opacity="1" stroke="none" stroke-linecap="butt" stroke-linejoin="miter" stroke-opacity="1" stroke-width="1" font-family="sans-serif" font-size="26.667" font-style="normal" font-weight="normal" letter-spacing="0" word-spacing="0" xml:space="preserve" style="line-height:125%"><tspan id="tspan5164" x="1400.044" y="125.237">63</tspan></text><text id="text5166" x="1405.542" y="261.461" fill="#000" fill-opacity="1" stroke="none" stroke-linecap="butt" stroke-linejoin="miter" stroke-opacity="1" stroke-width="1" font-family="sans-serif" font-size="26.667" font-style="normal" font-weight="normal" letter-spacing="0" word-spacing="0" xml:space="preserve" style="line-height:125%"><tspan id="tspan5168" x="1405.542" y="261.461">89</tspan></text><text id="text5170" x="1401.854" y="393.937" fill="#000" fill-opacity="1" stroke="none" stroke-linecap="butt" stroke-linejoin="miter" stroke-opacity="1" stroke-width="1" font-family="sans-serif" font-size="26.667" font-style="normal" font-weight="normal" letter-spacing="0" word-spacing="0" xml:space="preserve" style="line-height:125%"><tspan id="tspan5172" x="1401.854" y="393.937">00</tspan></text><text id="text5174" x="1407.291" y="555.901" fill="#000" fill-opacity="1" stroke="none" stroke-linecap="butt" stroke-linejoin="miter" stroke-opacity="1" stroke-width="1" font-family="sans-serif" font-size="26.667" font-style="normal" font-weight="normal" letter-spacing="0" word-spacing="0" xml:space="preserve" style="line-height:125%"><tspan id="tspan5176" x="1407.291" y="555.901">99</tspan></text></g></svg>